<?xml version="1.0" encoding="UTF-8" standalone="no"?>
<!-- Created with Inkscape (http://www.inkscape.org/) -->

<svg
    xmlns:dc="http://purl.org/dc/elements/1.1/"
    xmlns:cc="http://creativecommons.org/ns#"
    xmlns:rdf="http://www.w3.org/1999/02/22-rdf-syntax-ns#"
    xmlns:svg="http://www.w3.org/2000/svg"
    xmlns="http://www.w3.org/2000/svg"
    xmlns:sodipodi="http://sodipodi.sourceforge.net/DTD/sodipodi-0.dtd"
    xmlns:inkscape="http://www.inkscape.org/namespaces/inkscape"
    id="svg9296"
    sodipodi:version="0.32"
    inkscape:version="0.91 r13725"
    width="200"
    height="200"
    version="1.0"
    sodipodi:docname="koha-egg.svg"
    inkscape:output_extension="org.inkscape.output.svg.inkscape"
    inkscape:export-filename="/Users/mason/git.wasabi/logos/koha-single-blue/kcon-green.png"
    inkscape:export-xdpi="180"
    inkscape:export-ydpi="180">
    <metadata
        id="metadata9301">
        <rdf:RDF>
            <cc:Work
                rdf:about="">
                <dc:format>image/svg+xml</dc:format>
                <dc:type
                    rdf:resource="http://purl.org/dc/dcmitype/StillImage" />
                <dc:title></dc:title>
            </cc:Work>
        </rdf:RDF>
    </metadata>
    <defs
        id="defs9299">
        <inkscape:perspective
            sodipodi:type="inkscape:persp3d"
            inkscape:vp_x="0 : 526.18109 : 1"
            inkscape:vp_y="0 : 1000 : 0"
            inkscape:vp_z="744.09448 : 526.18109 : 1"
            inkscape:persp3d-origin="372.04724 : 350.78739 : 1"
            id="perspective9303" />
    </defs>
    <sodipodi:namedview
        inkscape:window-height="855"
        inkscape:window-width="1436"
        inkscape:pageshadow="2"
        inkscape:pageopacity="0.0"
        guidetolerance="10.0"
        gridtolerance="10.0"
        objecttolerance="10.0"
        borderopacity="1.0"
        bordercolor="#666666"
        pagecolor="#ffffff"
        id="base"
        showgrid="false"
        inkscape:zoom="3.6208843"
        inkscape:cx="99.762147"
        inkscape:cy="97.994984"
        inkscape:window-x="4"
        inkscape:window-y="0"
        inkscape:current-layer="svg9296"
        inkscape:window-maximized="1" />
    <g
        id="g9307"
        transform="translate(389.81216,372.40787)" />
    <text
        xml:space="preserve"
        style="font-size:40px;font-style:normal;font-weight:normal;fill:#000000;fill-opacity:1;stroke:none;font-family:Bitstream Vera Sans"
        x="805.42493"
        y="1549.4952"
        id="text10157"><tspan
       sodipodi:role="line"
       id="tspan10159"
       x="805.42493"
       y="1549.4952" /></text>
    <path
        style="fill:#ffffff;fill-opacity:1;stroke:#3980ff;stroke-width:2.66530371;stroke-linecap:square;stroke-linejoin:bevel;stroke-miterlimit:4;stroke-opacity:1;stroke-dasharray:none"
        d=""
        id="path10183"
        inkscape:connector-curvature="0" />
    <text
        xml:space="preserve"
        style="font-size:40px;font-style:normal;font-weight:normal;fill:#000000;fill-opacity:1;stroke:none;font-family:Bitstream Vera Sans"
        x="-2373.6355"
        y="1342.1479"
        id="text10327"><tspan
       sodipodi:role="line"
       id="tspan10329"
       x="-2373.6355"
       y="1342.1479" /></text>
    <path
        inkscape:connector-curvature="0"
        sodipodi:nodetypes="cssssssssssssssssssssc"
        inkscape:export-ydpi="16.610001"
        inkscape:export-xdpi="16.610001"
        inkscape:export-filename="/Users/masonjames/Desktop/koha-img/flowRoot10303.png"
        style="fill:#74b01b;fill-opacity:1"
        d="m 92.878172,194.97858 c -13.121249,-1.63719 -23.048611,-7.76536 -26.192821,-16.16888 -1.451341,-3.87905 -2.038975,-8.51731 -1.079019,-8.51731 0.2458,0 2.015691,1.3831 3.933079,3.07349 4.229288,3.7287 7.450664,5.41175 12.742764,6.6576 11.287759,2.65749 24.162085,-3.73153 29.752665,-14.76495 2.03082,-4.008 3.25287,-7.41449 3.25287,-12.33606 0,-5.13044 -1.22348,-8.78912 -3.18104,-12.50693 -4.17458,-7.92863 -14.348262,-15.97368 -24.066928,-19.03141 -4.268166,-1.34295 -6.991267,-1.65205 -14.265049,-1.61948 -14.893608,0.0669 -26.051012,4.14643 -34.53056,12.626 -7.950795,7.95078 -11.54254,17.54471 -11.54254,30.83122 0,7.46061 -0.716129,8.92191 -2.088197,4.26118 -2.899691,-9.84961 -3.82864,-33.54345 -1.769749,-45.13666 C 26.809118,105.64899 31.214379,92.020571 38.49437,77.022456 52.039727,49.116779 72.333619,27.198114 94.704405,16.312124 105.68927,10.966739 113.55008,8.9339827 123.219,8.9386333 c 13.26387,0.00721 23.0373,3.8338687 32.52303,12.7369977 21.8457,20.503877 26.56365,61.115321 12.00508,103.336789 -5.90522,17.12586 -18.28982,38.93207 -28.31998,49.86445 -4.38068,4.77474 -14.45436,12.29746 -20.71213,15.4672 -7.39201,3.74422 -17.8859,5.62662 -25.836828,4.63451 z"
        id="path3136" />
    <path
        style="opacity:0.84500002;fill:#000000;fill-opacity:1;fill-rule:evenodd;stroke:none;stroke-width:1;stroke-linecap:round;stroke-linejoin:miter;stroke-miterlimit:4;stroke-dasharray:none;stroke-dashoffset:0;stroke-opacity:1"
        d="M 122.07422 9.1699219 C 119.55581 9.1833519 117.19169 9.3049328 115.50391 9.5488281 C 98.542454 11.999862 78.701021 23.691428 63.556641 40.15625 C 56.639046 47.676993 49.820989 56.911279 44.542969 65.908203 C 41.886933 70.435691 36.976042 80.201329 34.921875 85.042969 C 29.64603 97.478053 25.487501 111.93804 23.693359 124.08594 C 22.644581 131.18711 22.633886 145.70471 23.669922 155.57031 C 24.596466 164.39329 26.435675 171.53805 27.240234 169.44141 C 27.339466 169.18281 27.535915 166.04025 27.677734 162.45703 C 27.792454 159.5585 27.935988 157.2929 28.152344 155.3418 C 28.172376 155.17565 28.193791 155.0087 28.214844 154.8457 C 28.271178 154.38055 28.327985 153.92644 28.394531 153.49219 C 28.496887 152.83254 28.612667 152.20374 28.736328 151.58789 C 28.737145 151.58399 28.737463 151.58007 28.738281 151.57617 C 29.091154 149.89372 29.557318 148.32144 30.1875 146.53516 C 32.419512 140.20839 36.358655 134.58421 41.544922 130.17773 C 41.56145 130.16369 41.577196 130.14878 41.59375 130.13477 C 41.944991 129.83732 42.307423 129.55176 42.669922 129.26562 C 42.934116 129.059 43.198698 128.85291 43.46875 128.65234 C 43.684612 128.49053 43.901556 128.32968 44.121094 128.17188 C 48.173896 125.28495 52.852187 123.07487 57.976562 121.65234 C 59.352718 121.28232 60.793548 120.95671 62.333984 120.67188 C 64.242475 120.33933 66.442995 120.0881 68.777344 119.92188 C 68.818415 119.91895 68.85926 119.91693 68.900391 119.91406 C 73.100913 119.70318 78.611216 119.70772 81.761719 119.95117 C 81.892712 119.96407 82.032777 119.97444 82.160156 119.98828 C 82.629666 120.03099 83.058586 120.07753 83.380859 120.13281 C 83.424046 120.13922 83.467188 120.1458 83.509766 120.15234 C 87.400174 120.86302 92.085138 122.67563 96.236328 125.00586 C 96.792937 125.31831 97.331089 125.645 97.865234 125.97461 C 98.265274 126.2246 98.660699 126.48111 99.052734 126.74219 C 99.258707 126.87909 99.465183 127.01529 99.666016 127.1543 C 100.06322 127.42761 100.45226 127.71009 100.83984 127.99414 C 101.11107 128.19507 101.38618 128.39376 101.65039 128.59766 C 101.81233 128.72166 101.96892 128.85077 102.12891 128.97656 C 109.38295 134.71774 113.88048 141.57471 114.98438 148.60156 C 114.99122 148.64387 114.99726 148.68618 115.00391 148.72852 C 115.07762 149.21592 115.13881 149.70276 115.17969 150.19141 C 115.60253 155.24669 114.92479 159.20912 112.86523 163.72852 C 110.74148 168.38879 107.51105 172.2742 103.65234 175.14258 C 103.04092 175.59708 102.4106 176.02339 101.76953 176.42578 C 101.66464 176.49096 101.55709 176.55318 101.45117 176.61719 C 100.98533 176.90125 100.5105 177.16598 100.03125 177.42188 C 99.773389 177.55934 99.515265 177.69528 99.251953 177.82617 C 96.831126 179.0238 94.266832 179.86871 91.638672 180.30273 C 90.451153 180.4307 89.132662 180.48733 87.472656 180.48828 C 85.95566 180.48918 84.994757 180.46596 84.177734 180.41797 C 83.227075 180.28851 82.278566 180.11073 81.337891 179.86523 C 78.558291 179.13982 76.443391 178.27941 74.101562 176.80859 C 73.973951 176.72694 73.852162 176.65301 73.720703 176.56641 C 73.458694 176.3962 73.187975 176.20625 72.917969 176.01953 C 72.672638 175.8499 72.424278 175.67801 72.162109 175.49023 C 71.196655 174.7887 70.169498 173.98998 69.017578 173.04102 C 67.374125 171.68712 65.884385 170.58008 65.705078 170.58008 C 65.182535 170.58008 65.163489 172.55772 65.666016 174.83008 C 66.756194 179.7597 68.443582 182.76861 71.994141 186.11523 C 76.474469 190.33822 82.643275 193.11614 90.787109 194.57617 C 93.425821 195.04924 100.09586 195.13409 103.35938 194.73633 C 109.21067 194.02319 115.99501 191.83393 120.68945 189.14648 C 126.2285 185.97552 133.98283 180.12585 138.16016 175.96484 C 147.09452 167.06542 158.76333 147.63069 165.76953 129.98242 C 170.52502 118.00358 174.0629 103.27853 175.49023 89.521484 C 176.02286 84.387876 175.93787 70.209036 175.3457 65.494141 C 173.06984 47.373628 167.1758 33.62415 157.36914 23.556641 C 149.9582 15.948571 142.69187 11.804042 133.5293 9.9589844 C 130.89747 9.4290142 126.27157 9.1475384 122.07422 9.1699219 z "
        id="path4214" />
    <style>
        @media (prefers-color-scheme:dark){:root{filter:invert(100%)}}
    </style>
</svg>